<?xml version="1.0" encoding="UTF-8" standalone="no"?>
<!-- Created with Inkscape (http://www.inkscape.org/) -->
<svg
   xmlns:dc="http://purl.org/dc/elements/1.1/"
   xmlns:cc="http://web.resource.org/cc/"
   xmlns:rdf="http://www.w3.org/1999/02/22-rdf-syntax-ns#"
   xmlns:svg="http://www.w3.org/2000/svg"
   xmlns="http://www.w3.org/2000/svg"
   xmlns:sodipodi="http://sodipodi.sourceforge.net/DTD/sodipodi-0.dtd"
   xmlns:inkscape="http://www.inkscape.org/namespaces/inkscape"
   id="svg2211"
   sodipodi:version="0.32"
   inkscape:version="0.45.1"
   width="300"
   height="300"
   version="1.0"
   sodipodi:docbase="/home/todsah/dev/miniorganizer/data"
   sodipodi:docname="miniorganizer-original.svg"
   inkscape:output_extension="org.inkscape.output.svg.inkscape"
   inkscape:export-filename="/home/todsah/download/organizer.png"
   inkscape:export-xdpi="10.06"
   inkscape:export-ydpi="10.06">
  <metadata
     id="metadata2216">
    <rdf:RDF>
      <cc:Work
         rdf:about="">
        <dc:format>image/svg+xml</dc:format>
        <dc:type
           rdf:resource="http://purl.org/dc/dcmitype/StillImage" />
      </cc:Work>
    </rdf:RDF>
  </metadata>
  <defs
     id="defs2214" />
  <sodipodi:namedview
     inkscape:window-height="899"
     inkscape:window-width="984"
     inkscape:pageshadow="2"
     inkscape:pageopacity="0.0"
     guidetolerance="10.0"
     gridtolerance="10.0"
     objecttolerance="10.0"
     borderopacity="1.0"
     bordercolor="#666666"
     pagecolor="#ffffff"
     id="base"
     inkscape:zoom="1.4142136"
     inkscape:cx="145.1235"
     inkscape:cy="110.98487"
     inkscape:window-x="44"
     inkscape:window-y="47"
     inkscape:current-layer="svg2211" />
  <path
     style="fill:#ffffff;fill-opacity:1;stroke:none;stroke-opacity:1"
     d="M 144.15883,2.1052998 L 285.97129,44.254705 L 196.24285,291.89254 L 38.953701,235.08007 L 4.9632504,197.68072 L 144.15883,2.1052998 z "
     id="rect4228"
     sodipodi:nodetypes="cccccc"
     inkscape:export-filename="/home/todsah/dev/miniorganizer/data/path3225.png"
     inkscape:export-xdpi="19.280001"
     inkscape:export-ydpi="19.280001" />
  <path
     id="path2240"
     d="M 187.0018,297.67896 C 183.26902,296.45908 176.2211,294.20364 171.33976,292.66688 C 152.35169,286.68895 108.78525,270.63533 77.773059,258.18886 C 59.906447,251.01825 41.165591,243.72351 36.126712,241.97831 C 31.087833,240.2331 24.461711,237.38977 21.401996,235.65979 C 11.751447,230.2033 2.9968901,215.67369 1.1389357,202.02996 C -0.11206342,192.84335 1.2527361,188.08884 7.6898499,179.20877 C 65.016627,100.12587 137.08597,4.329228 141.26602,1.6555225 C 144.46427,-0.39019736 149.64567,-7.5707221e-05 155.8602,2.7543603 C 166.21539,7.3440442 241.91049,27.847861 269.33611,33.492008 C 285.62398,36.844026 289.07362,38.357063 291.31255,43.131045 C 292.78901,46.279262 292.54582,47.079685 285.34669,62.766058 C 281.21891,71.76021 277.84163,79.649706 277.84163,80.29827 C 277.84163,80.946832 280.54333,82.100959 283.84541,82.862995 C 287.14749,83.62503 290.94684,84.53003 292.28842,84.874103 C 293.63,85.218176 295.91891,86.923452 297.3749,88.663617 C 301.36072,93.427347 300.21107,98.739237 290.4502,120.65903 L 281.97891,139.6828 L 282.5983,149.66618 L 283.21767,159.64956 L 276.09207,176.49014 C 268.66168,194.05109 265.00841,198.9591 259.36738,198.9591 C 257.99052,198.9591 255.82589,200.22262 254.5571,201.76693 C 252.35719,204.44452 241.67218,226.621 222.2388,268.84274 C 211.96423,291.16568 208.19178,296.97861 202.82258,298.76101 C 197.67412,300.47012 194.97855,300.28577 187.0018,297.67896 z M 185.38339,265.03509 C 185.92895,264.38387 187.20126,263.85105 188.21076,263.85105 C 189.93327,263.85105 195.35489,254.66295 195.35489,251.7438 C 195.35489,251.03944 193.23587,250.11602 190.64595,249.69175 C 185.41403,248.83468 148.53185,236.62261 125.91985,228.26029 C 117.88,225.287 99.320485,218.82305 84.676478,213.89595 C 70.032471,208.96886 55.566614,203.87322 52.530129,202.57231 C 45.223713,199.44206 43.955176,199.54752 43.955176,203.28523 C 43.955176,205.1582 42.476611,208.13058 40.178884,210.87676 C 38.101924,213.35909 36.809806,215.82117 37.30751,216.34807 C 40.421868,219.64511 62.287023,227.66631 144.7143,255.75015 C 160.21972,261.033 173.61076,265.8696 174.47217,266.49813 C 176.27695,267.815 183.9122,266.79121 185.38339,265.03509 z M 24.766618,204.62621 C 25.088084,203.62498 24.748028,200.67677 24.010936,198.07462 L 22.670771,193.34345 L 21.856804,198.823 C 21.409121,201.83675 21.2923,204.78496 21.5972,205.37459 C 22.455771,207.03492 24.119373,206.64211 24.766618,204.62621 z "
     style="fill:#a0a39d"
     inkscape:export-filename="/home/todsah/dev/miniorganizer/data/path3225.png"
     inkscape:export-xdpi="19.280001"
     inkscape:export-ydpi="19.280001" />
  <path
     id="path2238"
     d="M 179.69285,294.27701 C 143.5028,282.19242 116.12544,272.19744 81.022002,258.25403 C 59.773836,249.81407 39.334874,241.92675 35.602088,240.72667 C 23.057157,236.69349 16.309624,232.0717 10.55353,223.56941 C 4.5385307,214.68469 1.8125089,206.27833 1.7274421,196.35197 C 1.672816,189.97769 2.0272971,188.87171 5.8442133,183.50762 C 8.1413124,180.27939 12.135133,174.61995 14.719369,170.93107 C 25.583739,155.42272 91.43378,66.785594 110.71181,41.720919 C 116.78266,33.827812 125.84884,21.967991 130.85888,15.365762 C 142.27541,0.32108203 144.36509,-0.86976632 152.96812,2.7663116 C 159.18611,5.3943556 186.00644,13.729386 197.44316,16.587951 C 200.60167,17.377409 214.93244,21.083579 229.28931,24.823883 C 243.64618,28.564188 262.16789,33.015229 270.44866,34.715085 C 292.79852,39.303013 294.57406,41.77534 286.92947,57.663607 C 280.10984,71.837291 276.65273,80.364883 277.25451,81.528635 C 277.54705,82.09434 281.36273,83.316661 285.73381,84.244904 C 294.87396,86.185905 298.72435,89.409462 298.72435,95.120628 C 298.72435,98.715577 291.92433,116.36226 284.74097,131.40882 C 281.02788,139.18637 280.96048,139.56477 281.61562,148.95373 L 282.2852,158.54964 L 275.32876,175.6791 C 267.88218,194.01548 265.84409,196.68823 258.18701,198.15887 C 255.77595,198.62194 253.79767,199.95192 252.86712,201.73542 C 250.15044,206.94217 231.38172,246.73356 221.5084,268.21878 C 210.68135,291.77938 208.13959,295.74754 202.7232,297.54588 C 197.01333,299.44167 193.78906,298.98402 179.69285,294.27701 z M 187.72357,265.73175 C 189.62589,264.59543 192.48481,260.95366 194.38625,257.24462 C 196.21806,253.67141 198.16148,250.40707 198.70497,249.99054 C 199.24846,249.57401 196.67075,248.94325 192.97671,248.58885 C 189.28269,248.23445 179.73161,245.65669 171.75211,242.86049 C 163.77261,240.06428 149.72615,235.17754 140.53775,232.00107 C 131.34936,228.8246 115.13915,223.16695 104.51506,219.42853 C 93.890978,215.6901 78.62049,210.42284 70.580643,207.72348 C 62.540796,205.02413 53.18748,201.66708 49.795498,200.26337 C 41.92065,197.00452 41.803676,197.02136 42.521444,201.31064 C 43.011379,204.23842 42.421991,205.8385 39.362932,209.88536 C 37.294468,212.62175 35.602088,215.41443 35.602088,216.09129 C 35.602088,217.30331 51.442755,225.15321 58.573079,227.47464 C 60.583041,228.12904 67.865889,230.64566 74.757187,233.06714 C 81.648484,235.48861 106.08127,243.92559 129.05226,251.81595 C 152.02325,259.70632 171.99235,266.75938 173.42804,267.48943 C 176.70348,269.15498 183.36357,268.3361 187.72357,265.73175 z M 25.767064,201.17958 C 24.929896,194.92242 23.434271,191.47157 21.559539,191.47157 C 20.471985,191.47157 20.182491,193.24754 20.375332,198.73635 C 20.693746,207.79939 21.414006,209.42323 24.297478,207.57886 C 26.114142,206.41685 26.337594,205.44383 25.767064,201.17958 z "
     style="fill:#898876"
     inkscape:export-filename="/home/todsah/dev/miniorganizer/data/path3225.png"
     inkscape:export-xdpi="19.280001"
     inkscape:export-ydpi="19.280001" />
  <path
     id="path2236"
     d="M 177.60458,292.97928 C 145.29203,282.20695 118.83106,272.5374 81.022002,257.68541 C 58.625286,248.88763 36.440294,240.23689 31.72202,238.46154 C 20.73537,234.32758 15.842748,230.57338 10.155705,221.9133 C 5.0298697,214.10783 2.1897375,205.17616 2.1897375,196.86187 C 2.1897375,190.16951 3.2837434,187.40318 8.5163702,180.86423 C 10.713328,178.1188 13.830015,173.79933 15.442342,171.2654 C 17.054668,168.73147 23.296224,160.02721 29.312464,151.92261 C 35.328705,143.818 53.162082,119.77844 68.942191,98.501371 C 106.26091,48.182768 139.66953,4.5924784 142.11506,3.0282368 C 144.91134,1.239635 150.09927,1.5021953 153.50073,3.6044648 C 156.42722,5.4131656 188.11672,15.217156 200.0535,18.006796 C 203.49915,18.812049 217.82992,22.479697 231.89965,26.157126 C 245.96938,29.834554 263.30733,34.026159 270.42843,35.471802 C 287.45372,38.928082 290.37126,40.394467 290.37126,45.495259 C 290.37126,47.762202 288.67533,52.886777 286.32355,57.726177 C 280.59984,69.504228 276.79749,78.765299 276.79749,80.928065 C 276.79749,82.235478 279.29681,83.422418 285.29204,84.962171 C 295.59472,87.608199 298.13907,89.741235 297.99974,95.615576 C 297.89796,99.907292 292.98166,112.66781 284.62774,130.32339 C 280.27617,139.5202 280.20814,139.84682 280.71159,149.12406 C 281.2033,158.18483 281.04794,159.01465 276.85673,169.71477 C 269.24894,189.13738 267.80419,192.02978 264.27504,194.90335 C 262.37842,196.44766 259.55936,197.71118 258.01046,197.71118 C 256.46157,197.71118 254.47399,198.69392 253.59361,199.89504 C 252.09783,201.93578 242.98871,220.97745 219.1615,271.87171 C 207.92513,295.87232 206.36751,297.62303 196.41531,297.4377 C 193.24784,297.37871 184.78301,295.37242 177.60458,292.97928 z M 185.33499,266.88617 C 187.00247,265.90322 188.95473,265.09897 189.67335,265.09897 C 190.39196,265.09897 192.26504,262.43154 193.83576,259.17134 C 195.40647,255.91114 197.91789,252.00038 199.41668,250.48076 L 202.14177,247.71782 L 194.95264,247.67294 C 187.66417,247.62744 165.41314,240.7515 128.00812,226.98597 C 119.96827,224.02721 101.40876,217.59295 86.76475,212.68763 C 72.120743,207.78231 56.850255,202.43258 52.830332,200.79934 C 41.693752,196.27471 41.346214,196.29517 41.690531,201.45546 C 41.930993,205.05929 41.332418,206.57618 38.269976,210.12374 C 36.228363,212.48875 34.557952,215.05448 34.557952,215.82533 C 34.557952,217.9144 48.034057,224.53862 62.227555,229.42641 C 69.118852,231.79956 96.984878,241.34827 124.15206,250.64577 C 151.31924,259.94328 174.34244,268.11839 175.31473,268.81271 C 177.29579,270.22741 180.81465,269.55086 185.33499,266.88617 z M 25.328709,207.58711 C 27.097074,206.45599 27.330048,205.48235 26.736756,201.70259 C 25.766774,195.52302 23.33968,190.22365 21.47944,190.22365 C 20.273194,190.22365 19.940049,192.06911 19.940049,198.75111 C 19.940049,209.30661 20.697838,210.54919 25.328709,207.58711 z M 224.06863,117.84416 C 223.71371,117.15781 222.95346,116.59624 222.37919,116.59624 C 221.80491,116.59624 221.62543,117.15781 221.98036,117.84416 C 222.33528,118.53052 223.09553,119.09208 223.6698,119.09208 C 224.24408,119.09208 224.42355,118.53052 224.06863,117.84416 z "
     style="fill:#996044"
     inkscape:export-filename="/home/todsah/dev/miniorganizer/data/path3225.png"
     inkscape:export-xdpi="19.280001"
     inkscape:export-ydpi="19.280001" />
  <path
     id="path2234"
     d="M 177.60458,292.97928 C 145.29203,282.20695 118.83106,272.5374 81.022002,257.68541 C 58.625286,248.88763 36.440294,240.23689 31.72202,238.46154 C 20.73537,234.32758 15.842748,230.57338 10.155705,221.9133 C 5.0298697,214.10783 2.1897375,205.17616 2.1897375,196.86187 C 2.1897375,190.16951 3.2837434,187.40318 8.5163702,180.86423 C 10.713328,178.1188 13.830015,173.79933 15.442342,171.2654 C 17.054668,168.73147 23.296224,160.02721 29.312464,151.92261 C 35.328705,143.818 53.162082,119.77844 68.942191,98.501371 C 106.26091,48.182768 139.66953,4.5924784 142.11506,3.0282368 C 144.91134,1.239635 150.09927,1.5021953 153.50073,3.6044648 C 156.42722,5.4131656 188.11672,15.217156 200.0535,18.006796 C 203.49915,18.812049 217.82992,22.479697 231.89965,26.157126 C 245.96938,29.834554 263.30733,34.026159 270.42843,35.471802 C 287.45372,38.928082 290.37126,40.394467 290.37126,45.495259 C 290.37126,47.762202 288.67533,52.886777 286.32355,57.726177 C 280.59984,69.504228 276.79749,78.765299 276.79749,80.928065 C 276.79749,82.235478 279.29681,83.422418 285.29204,84.962171 C 295.59472,87.608199 298.13907,89.741235 297.99974,95.615576 C 297.89796,99.907292 292.98166,112.66781 284.62774,130.32339 C 280.27617,139.5202 280.20814,139.84682 280.71159,149.12406 C 281.2033,158.18483 281.04794,159.01465 276.85673,169.71477 C 269.24894,189.13738 267.80419,192.02978 264.27504,194.90335 C 262.37842,196.44766 259.55936,197.71118 258.01046,197.71118 C 256.46157,197.71118 254.47399,198.69392 253.59361,199.89504 C 252.09783,201.93578 242.98871,220.97745 219.1615,271.87171 C 207.92513,295.87232 206.36751,297.62303 196.41531,297.4377 C 193.24784,297.37871 184.78301,295.37242 177.60458,292.97928 z M 185.33499,266.88617 C 187.00247,265.90322 188.95473,265.09897 189.67335,265.09897 C 190.39196,265.09897 192.26504,262.43154 193.83576,259.17134 C 195.40647,255.91114 197.91789,252.00038 199.41668,250.48076 L 202.14177,247.71782 L 194.95264,247.67294 C 187.66417,247.62744 165.41314,240.7515 128.00812,226.98597 C 119.96827,224.02721 101.40876,217.59295 86.76475,212.68763 C 72.120743,207.78231 56.850255,202.43258 52.830332,200.79934 C 41.765389,196.30381 41.298601,196.32087 41.698346,201.20616 C 41.97617,204.60146 41.257953,206.33313 37.610306,211.0627 C 33.439317,216.47084 33.296054,216.89714 35.115292,218.48703 C 36.176827,219.41474 38.14495,220.17378 39.488899,220.17378 C 42.97906,220.17378 43.61191,223.45896 40.674385,226.32773 C 37.594958,229.33508 38.519126,230.62148 46.03032,233.7829 C 52.395153,236.46183 54.15506,236.10928 55.021847,231.98169 C 55.618427,229.14079 58.032253,227.11453 59.515104,228.20984 C 59.929571,228.516 85.757506,237.49366 116.91051,248.16021 C 148.06353,258.82676 174.34663,268.1212 175.31743,268.81452 C 177.29596,270.22754 180.81629,269.54988 185.33499,266.88617 z M 35.401016,224.96981 C 35.627967,222.62572 34.786728,220.51085 32.529642,217.75125 C 30.773839,215.60452 29.337273,212.96504 29.337273,211.88574 C 29.337273,210.49907 28.801218,210.19267 27.510035,210.84133 C 23.091957,213.06084 21.365917,212.80214 18.609055,209.50721 C 15.607463,205.9198 13.690584,199.57055 13.681057,193.18427 C 13.674428,188.74184 11.393815,185.82256 8.843617,186.99216 C 7.3878775,187.6598 7.2239116,188.99981 7.795812,195.55524 C 9.3497776,213.36767 20.842531,229.42934 31.425545,228.57893 C 34.529102,228.32953 35.128411,227.78546 35.401016,224.96981 z M 25.328709,207.58711 C 27.097074,206.45599 27.330048,205.48235 26.736756,201.70259 C 25.766774,195.52302 23.33968,190.22365 21.47944,190.22365 C 20.273194,190.22365 19.940049,192.06911 19.940049,198.75111 C 19.940049,209.30661 20.697838,210.54919 25.328709,207.58711 z M 226.77816,118.17213 C 226.20131,115.59423 225.00685,114.3933 221.90881,113.27636 C 219.65107,112.46236 218.5086,111.73452 219.37002,111.65894 C 220.89385,111.52523 225.63483,107.42922 225.63483,106.2464 C 225.63483,105.9217 224.68273,105.35847 223.51905,104.99476 C 222.18948,104.57921 220.29051,105.45256 218.40868,107.34506 C 216.26832,109.49755 214.11676,110.36795 210.8662,110.39631 C 206.65882,110.43304 206.4687,110.572 208.32695,112.25232 C 209.43171,113.2513 212.01595,114.4196 214.0697,114.84855 C 216.12346,115.2775 218.97847,116.54816 220.41415,117.67225 C 223.20838,119.86002 225.72688,121.35806 226.84971,121.50021 C 227.23074,121.54846 227.19855,120.05083 226.77816,118.17213 z M 253.22985,110.89145 C 255.01049,108.76328 255.39461,106.61286 253.99411,106.61286 C 253.51201,106.61286 252.58236,108.01678 251.92821,109.73267 C 250.5547,113.33555 250.91587,113.65706 253.22985,110.89145 z "
     style="fill:#5c5d5a"
     inkscape:export-filename="/home/todsah/dev/miniorganizer/data/path3225.png"
     inkscape:export-xdpi="19.280001"
     inkscape:export-ydpi="19.280001" />
  <path
     id="path2232"
     d="M 177.60458,291.77964 C 150.2299,282.75476 127.51925,274.44335 82.066138,256.81546 C 56.223773,246.79313 32.495784,237.63554 29.337273,236.46527 C 24.48103,234.66597 23.633702,233.91325 23.848316,231.58919 C 24.030744,229.61367 23.319517,228.48526 21.31895,227.5762 C 19.788214,226.88062 17.946193,226.58193 17.22557,226.91243 C 15.730082,227.5983 8.3675579,218.51822 6.0202306,213.09305 C 3.717512,207.77099 2.3226685,196.92421 3.2851248,191.82393 C 3.7951424,189.12123 5.9753098,185.11893 8.8412207,181.62419 C 11.435411,178.46078 14.876442,173.80445 16.487956,171.27677 C 23.843968,159.73878 120.55882,30.469314 136.97725,10.230273 C 142.01873,4.0156226 143.34171,3.0353349 146.68736,3.0353349 C 148.81772,3.0353349 151.82953,3.8117134 153.38027,4.7606209 C 157.69071,7.3982115 181.79138,15.180647 195.87696,18.483385 C 223.58011,24.979124 232.46685,27.17166 241.81894,29.818185 C 247.56169,31.443311 255.78426,33.442458 260.09132,34.26073 C 275.26392,37.143283 283.63444,39.072372 286.37693,40.318564 C 291.50673,42.649563 291.09002,45.562796 283.14221,62.933161 C 279.07835,71.814955 275.75336,79.897934 275.75336,80.895334 C 275.75336,82.910212 279.68116,84.721438 288.2104,86.639649 C 301.00484,89.517096 300.84036,93.012862 286.41428,124.81596 C 279.51234,140.03165 279.13387,141.2829 279.63081,147.24291 C 280.08948,152.74414 279.73464,154.37569 276.86887,159.94216 C 275.01253,163.54791 273.17503,169.30784 272.64917,173.16943 C 270.90348,185.98881 264.30548,196.46326 257.97608,196.46326 C 253.73249,196.46326 251.66411,200.08403 234.23421,238.02409 C 221.85959,264.96023 212.93058,283.77178 210.5332,287.95713 C 205.08114,297.47537 197.53738,298.35109 177.60458,291.77964 z M 186.47973,267.6051 C 187.62828,267.03755 189.34305,266.28078 190.29033,265.92337 C 191.23761,265.56597 193.27923,262.49222 194.82728,259.09285 C 196.37531,255.69346 198.77184,252.29684 200.15287,251.54478 C 201.67174,250.71767 202.66384,249.11701 202.66384,247.49357 C 202.66384,244.92066 202.36172,244.84531 195.35385,245.67062 C 186.889,246.66752 187.66709,246.9078 103.99299,217.45837 C 92.507498,213.416 77.237009,208.1794 70.058575,205.82149 C 62.88014,203.46356 53.509373,200.10904 49.234647,198.36697 C 41.208901,195.09628 38.744191,195.49352 40.584947,199.76107 C 41.905791,202.82327 41.220953,204.88562 37.016927,210.50597 C 35.090216,213.0818 33.513816,215.76918 33.513816,216.47795 C 33.513816,217.18672 35.628192,218.84984 38.212428,220.17378 C 40.796665,221.49771 42.91104,222.93205 42.91104,223.36118 C 42.91104,223.79032 41.853852,225.17432 40.561734,226.43675 C 37.600402,229.33003 38.581238,230.64762 46.03032,233.7829 C 52.426921,236.47519 54.15437,236.11256 55.040809,231.89139 C 55.737732,228.57268 56.465259,228.3616 61.109288,230.1308 C 62.872884,230.80265 68.779508,232.8252 74.235119,234.62534 C 79.690729,236.42548 90.262606,240.03121 97.728178,242.63808 C 105.19375,245.24494 124.77751,251.93721 141.24765,257.50978 C 157.71779,263.08235 172.72037,268.4091 174.58673,269.34701 C 177.9178,271.02097 180.26166,270.67768 186.47973,267.6051 z M 35.401016,224.96981 C 35.627967,222.62572 34.786728,220.51085 32.529642,217.75125 C 30.773839,215.60452 29.337273,212.96504 29.337273,211.88574 C 29.337273,210.49907 28.801218,210.19267 27.510035,210.84133 C 23.091957,213.06084 21.365917,212.80214 18.609055,209.50721 C 15.607463,205.9198 13.690584,199.57055 13.681057,193.18427 C 13.674428,188.74184 11.393815,185.82256 8.843617,186.99216 C 7.3878775,187.6598 7.2239116,188.99981 7.795812,195.55524 C 9.3497776,213.36767 20.842531,229.42934 31.425545,228.57893 C 34.529102,228.32953 35.128411,227.78546 35.401016,224.96981 z M 222.76346,208.49741 C 225.76204,202.82446 226.34449,200.20702 224.60829,200.20702 C 223.7213,200.20702 218.32588,211.42459 218.32588,213.26872 C 218.32588,215.32433 220.2464,213.25938 222.76346,208.49741 z M 26.303545,208.21178 C 27.639425,206.76687 27.977192,205.08666 27.555748,201.98273 C 27.212333,199.45349 27.502148,196.9784 28.271441,195.87054 C 29.344719,194.32492 29.118944,193.80643 26.941847,192.81715 C 25.499526,192.16176 24.011144,191.02932 23.634329,190.30062 C 23.257515,189.57193 22.037221,188.97572 20.922563,188.97572 C 19.144107,188.97572 18.895913,189.88274 18.895913,196.38202 C 18.895913,208.79546 21.669217,213.22435 26.303545,208.21178 z M 241.29687,129.07547 C 241.29687,128.38911 240.82701,127.82754 240.25274,127.82754 C 239.67846,127.82754 239.2086,128.38911 239.2086,129.07547 C 239.2086,129.76182 239.67846,130.32339 240.25274,130.32339 C 240.82701,130.32339 241.29687,129.76182 241.29687,129.07547 z M 232.09542,123.2313 C 231.34168,122.87082 230.44113,122.91514 230.09416,123.32982 C 229.7472,123.7445 230.3639,124.03943 231.46459,123.98525 C 232.68095,123.92537 232.92836,123.62967 232.09542,123.2313 z M 226.77816,118.17213 C 226.20131,115.59423 225.00685,114.3933 221.90881,113.27636 C 219.65107,112.46236 218.5086,111.73452 219.37002,111.65894 C 220.89385,111.52523 225.63483,107.42922 225.63483,106.2464 C 225.63483,105.9217 224.68273,105.35847 223.51905,104.99476 C 222.18948,104.57921 220.29051,105.45256 218.40868,107.34506 C 216.30728,109.45836 214.13545,110.35663 211.12723,110.35663 C 208.76947,110.35663 206.84039,110.9321 206.84039,111.63544 C 206.84039,113.29002 211.3963,115.34832 215.05859,115.34832 C 216.63246,115.34832 219.51232,116.75223 221.45829,118.46812 C 226.17315,122.62555 227.75499,122.53754 226.77816,118.17213 z M 254.87064,108.44085 C 254.87064,105.56614 253.23618,106.30173 251.9133,109.7718 C 250.7926,112.71152 250.85342,112.83837 252.78983,111.59977 C 253.93428,110.86775 254.87064,109.44623 254.87064,108.44085 z "
     style="fill:#674f2d"
     inkscape:export-filename="/home/todsah/dev/miniorganizer/data/path3225.png"
     inkscape:export-xdpi="19.280001"
     inkscape:export-ydpi="19.280001" />
  <path
     id="path2230"
     d="M 177.60458,291.77964 C 150.19116,282.74199 127.5179,274.44216 82.588206,256.99771 C 57.032979,247.07561 33.407532,238.01809 30.087213,236.86989 C 23.504997,234.59369 22.295319,233.40392 24.0273,230.9097 C 25.289071,229.09264 34.615516,229.48273 38.212428,231.50301 C 39.360978,232.14812 42.873295,233.74598 46.017576,235.0538 C 52.421819,237.71756 54.76954,237.02674 56.722528,231.90382 C 57.526565,229.79473 58.422293,229.07218 59.542163,229.62932 C 60.444854,230.0784 63.049745,230.97329 65.33081,231.61797 C 67.611874,232.26265 74.894722,234.68374 81.514917,236.99819 C 95.443055,241.8675 112.97349,247.87641 147.07723,259.47097 C 160.43661,264.01288 172.85496,268.47673 174.67356,269.39064 C 177.91346,271.01879 180.30257,270.65746 186.47973,267.6051 C 187.62828,267.03755 189.34305,266.28078 190.29033,265.92337 C 191.23761,265.56597 193.27923,262.49222 194.82728,259.09285 C 196.37531,255.69346 198.77184,252.29684 200.15287,251.54478 C 201.67174,250.71767 202.66384,249.11701 202.66384,247.49357 C 202.66384,244.92066 202.36172,244.84531 195.35385,245.67062 C 186.889,246.66752 187.66709,246.9078 103.99299,217.45837 C 92.507498,213.416 77.237009,208.1794 70.058575,205.82149 C 62.88014,203.46356 53.509373,200.10904 49.234647,198.36697 C 41.208901,195.09628 38.744191,195.49352 40.584947,199.76107 C 41.944156,202.91221 41.212825,205.01777 36.8721,210.45069 C 33.081693,215.19483 31.425545,215.5192 31.425545,211.51748 C 31.425545,210.26931 30.733186,208.56132 29.886971,207.72196 C 27.717521,205.57008 26.713755,198.11376 28.288274,195.8463 C 29.339686,194.33217 29.102724,193.79906 26.941847,192.81715 C 25.499526,192.16176 24.011144,191.02932 23.634329,190.30062 C 23.257515,189.57193 21.919756,188.97441 20.661529,188.97282 C 18.484461,188.97006 18.384788,189.43769 18.600148,198.64421 L 18.826451,208.31852 L 16.800292,203.32683 C 15.685903,200.5814 14.76181,195.93645 14.746751,193.00472 C 14.723935,188.56327 14.289189,187.44003 12.13995,186.26966 C 10.144922,185.18325 9.1805681,185.2419 7.8834275,186.52854 C 6.5197077,187.88122 6.3405162,189.6061 6.9244628,195.75945 C 7.7726384,204.69711 11.574198,214.64357 16.912126,221.89134 C 20.616702,226.92137 20.664257,227.10303 18.243298,226.97636 C 12.848713,226.69412 5.120317,214.17604 3.4544357,203.02206 C 2.1252788,194.12264 2.8607661,190.52314 7.2890427,184.25531 C 9.3657602,181.31592 12.944338,176.1703 15.241437,172.8206 C 21.938416,163.0549 92.430127,68.227565 116.40756,36.729231 C 141.07535,4.3240066 142.23344,3.0353349 146.68736,3.0353349 C 148.81772,3.0353349 151.82953,3.8117134 153.38027,4.7606209 C 155.94625,6.3307677 162.9618,8.8477241 178.60049,13.808839 C 184.9436,15.821088 200.93497,19.878159 207.36245,21.105856 C 209.65955,21.544619 223.0506,24.875124 237.12033,28.506979 C 251.19006,32.138836 267.45151,36.012141 273.25688,37.114326 C 285.20082,39.381954 289.01118,41.061112 289.9122,44.454008 C 290.32572,46.011202 288.0346,52.23675 283.14538,62.841088 C 279.07977,71.659101 275.75336,79.764567 275.75336,80.853233 C 275.75336,82.772522 279.76966,84.521448 290.85908,87.431131 C 293.71832,88.181345 295.48811,89.55824 296.57276,91.876355 C 298.65319,96.322624 297.66171,99.610836 287.23764,122.83585 C 279.5291,140.01062 279.1426,141.25169 279.63662,147.24291 C 280.08975,152.73839 279.73164,154.38152 276.86887,159.94216 C 275.01253,163.54791 273.17503,169.30784 272.64917,173.16943 C 270.90348,185.98881 264.30548,196.46326 257.97608,196.46326 C 253.73249,196.46326 251.66411,200.08403 234.23421,238.02409 C 221.85959,264.96023 212.93058,283.77178 210.5332,287.95713 C 205.08114,297.47537 197.53738,298.35109 177.60458,291.77964 z M 222.76346,208.49741 C 225.76204,202.82446 226.34449,200.20702 224.60829,200.20702 C 223.7213,200.20702 218.32588,211.42459 218.32588,213.26872 C 218.32588,215.32433 220.2464,213.25938 222.76346,208.49741 z M 243.62151,126.8916 C 245.05267,124.31776 248.40414,119.32155 251.0692,115.78892 C 253.73426,112.25629 255.91478,108.5144 255.91478,107.47361 C 255.91478,106.35565 252.81696,103.8046 248.34479,101.23974 C 238.69943,95.70796 237.33818,95.198623 236.50506,96.809712 C 236.09348,97.605637 234.5272,97.777451 232.55612,97.242904 C 230.75937,96.75564 226.12793,95.662061 222.26403,94.812728 L 215.23874,93.268487 L 208.9695,102.12454 L 202.70026,110.98059 L 207.6417,113.77236 C 210.35949,115.30784 213.46566,116.57136 214.5443,116.58018 C 215.62295,116.58902 218.91198,118.23189 221.85325,120.23103 C 224.79453,122.23015 229.63405,124.80864 232.60774,125.961 C 235.58144,127.11334 238.26839,128.84708 238.57876,129.81375 C 239.49215,132.65855 240.85345,131.8697 243.62151,126.8916 z M 228.7679,117.53218 C 228.76873,115.55073 237.86864,101.62118 239.16225,101.62118 C 241.71969,101.62118 240.89597,104.47456 236.60344,110.48488 C 234.01635,114.10726 231.89965,117.52577 231.89965,118.08155 C 231.89965,118.63734 231.19486,119.09208 230.33344,119.09208 C 229.47203,119.09208 228.76753,118.39013 228.7679,117.53218 z M 217.28175,122.83585 C 217.28175,122.14949 216.31429,121.58793 215.13185,121.58793 C 213.94941,121.58793 213.27235,122.14949 213.62727,122.83585 C 213.98219,123.52221 214.94965,124.08377 215.77717,124.08377 C 216.60469,124.08377 217.28175,123.52221 217.28175,122.83585 z M 38.734496,222.66962 C 38.734496,221.98326 39.204357,221.4217 39.778632,221.4217 C 40.352907,221.4217 40.822768,221.98326 40.822768,222.66962 C 40.822768,223.35598 40.352907,223.91754 39.778632,223.91754 C 39.204357,223.91754 38.734496,223.35598 38.734496,222.66962 z "
     style="fill:#513623"
     inkscape:export-filename="/home/todsah/dev/miniorganizer/data/path3225.png"
     inkscape:export-xdpi="19.280001"
     inkscape:export-ydpi="19.280001" />
  <path
     id="path2228"
     d="M 177.60458,291.83495 C 147.12072,281.61189 119.19242,271.35862 79.455798,255.80176 C 56.19767,246.69623 34.584056,238.32392 31.425545,237.19663 C 23.86686,234.4989 22.014807,233.06476 24.059529,231.49274 C 26.272468,229.7914 35.104737,231.25109 43.234301,234.66173 C 52.407544,238.51023 53.851891,238.42407 56.675244,233.85996 C 59.61304,229.11084 58.002629,228.76651 97.728178,242.63808 C 105.19375,245.24494 124.77751,251.93721 141.24765,257.50978 C 157.71779,263.08235 172.72037,268.4091 174.58673,269.34701 C 177.9178,271.02097 180.26166,270.67768 186.47973,267.6051 C 187.62828,267.03755 189.34305,266.28078 190.29033,265.92337 C 191.23761,265.56597 193.27923,262.49222 194.82728,259.09285 C 196.37531,255.69346 198.77184,252.29684 200.15287,251.54478 C 201.67174,250.71767 202.66384,249.11701 202.66384,247.49357 C 202.66384,244.92066 202.36172,244.84531 195.35385,245.67062 C 186.889,246.66752 187.66709,246.9078 103.99299,217.45837 C 92.507498,213.416 77.237009,208.1794 70.058575,205.82149 C 62.88014,203.46356 53.542228,200.12239 49.307658,198.39665 C 45.073089,196.67092 41.212123,195.5517 40.727737,195.90949 C 40.24335,196.26728 40.127856,198.23819 40.471084,200.28927 C 40.910469,202.91498 40.543484,204.74706 39.23092,206.4805 C 36.872303,209.59541 35.369835,209.58725 32.991748,206.44663 C 31.952326,205.07392 30.501582,203.95079 29.767874,203.95079 C 27.895356,203.95079 26.927255,199.51354 28.186318,196.7018 C 29.591336,193.56412 26.014121,190.51653 16.285573,186.56304 C 12.26565,184.92942 8.8184889,183.44506 8.6252151,183.26445 C 8.2678836,182.93053 44.769624,133.0083 66.951829,103.49306 C 73.657649,94.570419 85.205063,79.068354 92.612747,69.044028 C 113.15695,41.242935 133.71929,14.239199 138.83739,8.3390037 C 143.97743,2.4134979 146.93289,1.7369594 153.36196,5.0141637 C 160.76992,8.7903621 189.27279,17.480834 207.88452,21.637996 C 211.04303,22.343489 223.49435,25.513093 235.55412,28.681564 C 247.61389,31.850033 263.14121,35.488986 270.05926,36.768125 C 291.28106,40.692007 292.36127,41.795022 286.85405,53.917399 C 278.40583,72.513391 275.45697,80.179244 276.04603,82.013909 C 276.42,83.178665 279.06461,84.497404 282.73481,85.349287 C 299.60972,89.266088 300.26417,91.087293 292.03617,111.23376 C 288.72926,119.3308 284.43057,129.0922 282.48352,132.92574 C 279.28613,139.22108 279.00545,140.52159 279.584,146.36005 C 280.05633,151.12645 279.82049,153.39282 278.68609,154.98899 C 276.10672,158.61827 273.59813,166.20088 272.63365,173.28343 C 270.92094,185.86057 264.27536,196.46326 258.10494,196.46326 C 254.64753,196.46326 252.19267,199.51443 247.56262,209.56644 C 245.66576,213.68458 241.90029,221.54649 239.1949,227.03735 C 236.48951,232.5282 231.91178,242.35559 229.02218,248.87598 C 218.49304,272.63493 209.38496,290.54109 206.56811,293.01985 C 201.69268,297.3101 192.85234,296.94845 177.60458,291.83495 z M 222.76346,208.49741 C 225.76204,202.82446 226.34449,200.20702 224.60829,200.20702 C 223.7213,200.20702 218.32588,211.42459 218.32588,213.26872 C 218.32588,215.32433 220.2464,213.25938 222.76346,208.49741 z M 223.16987,132.19247 C 224.96665,126.59629 219.06139,119.10685 212.84417,119.09675 C 207.55748,119.08817 210.4243,125.33491 216.49864,127.05975 C 218.32528,127.57843 219.37002,128.69888 219.37002,130.13918 C 219.37002,134.12557 222.07918,135.58951 223.16987,132.19247 z M 244.6232,126.77715 C 246.16554,124.16968 249.57204,119.18547 252.19318,115.70113 C 254.81434,112.21678 256.95891,108.55276 256.95891,107.55886 C 256.95891,103.17327 243.15898,94.885868 236.30481,95.155257 C 233.8463,95.251884 228.52965,94.499986 224.49001,93.484377 C 220.45037,92.468756 216.53826,91.637802 215.79642,91.637802 C 214.40015,91.637802 201.61971,109.46976 201.61971,111.41791 C 201.61971,112.61398 212.85218,117.84416 215.4209,117.84416 C 216.28947,117.84416 218.12068,118.86752 219.49024,120.11829 C 220.8598,121.36906 225.03445,123.69965 228.76724,125.29739 C 232.50003,126.89513 236.24214,128.96038 237.08304,129.88684 C 239.58738,132.64598 241.65649,131.79264 244.6232,126.77715 z M 11.310798,221.48499 C 5.8693634,214.25159 3.2268589,206.28301 3.2498623,197.17689 C 3.2722945,188.29684 4.8554145,185.89772 5.7880096,193.3305 C 6.1920129,196.55039 6.7002555,200.28763 6.9174368,201.63546 C 7.6004583,205.87431 12.481599,217.27409 15.370566,221.37752 C 17.212056,223.99314 17.794057,225.73362 17.103284,226.55921 C 16.412511,227.38481 14.466876,225.68043 11.310798,221.48499 z "
     style="fill:#292d2e"
     inkscape:export-filename="/home/todsah/dev/miniorganizer/data/path3225.png"
     inkscape:export-xdpi="19.280001"
     inkscape:export-ydpi="19.280001" />
  <path
     id="path2226"
     d="M 189.09007,291.72684 C 183.60648,289.96534 179.87055,287.56157 182.61643,287.56157 C 183.30556,287.56157 183.86939,286.68138 183.86939,285.60559 C 183.86939,284.21751 183.26309,283.87961 181.78112,284.44176 C 180.58318,284.89618 179.69285,284.66601 179.69285,283.9019 C 179.69285,283.16928 178.5182,282.56988 177.08251,282.56988 C 175.45829,282.56988 174.47217,283.27704 174.47217,284.44176 C 174.47217,285.4713 174.00231,286.31365 173.42804,286.31365 C 172.85376,286.31365 172.3839,285.19052 172.3839,283.8178 C 172.3839,281.18104 169.85592,280.39143 168.68203,282.66153 C 168.25076,283.49553 167.39846,282.9929 166.4238,281.32978 C 165.49167,279.73925 164.21489,278.95354 163.26807,279.38778 C 162.39345,279.7889 161.03262,279.47708 160.24399,278.69484 C 159.22455,277.68365 158.42278,277.6568 157.46994,278.60192 C 155.88555,280.17349 154.11152,278.97353 154.11152,276.33027 C 154.11152,275.02675 152.90291,274.40103 150.131,274.2695 C 147.94172,274.16562 145.35748,273.26509 144.38825,272.26832 C 141.62047,269.42187 135.75459,266.34689 133.09245,266.34689 C 131.66216,266.34689 129.97016,265.07654 128.96959,263.25145 C 127.59,260.73497 126.8997,260.39452 125.27892,261.43123 C 122.55574,263.17308 116.42023,259.62172 114.68738,255.30061 C 113.03853,251.18898 110.1965,250.37917 109.44642,253.80725 C 108.84264,256.56675 106.58194,257.36838 106.63654,254.80361 C 106.68586,252.48687 109.24245,248.87598 110.83345,248.87598 C 112.63739,248.87598 158.97383,264.29134 169.57103,268.41698 C 175.4895,270.72113 178.76454,271.35626 181.53002,270.7362 C 188.10517,269.26195 193.0795,265.43791 195.35426,260.10874 C 196.51793,257.38258 198.66104,254.2194 200.11672,253.07945 C 202.11399,251.51538 205.79625,244.38987 205.79625,242.08905 C 205.79625,241.61801 193.76686,243.63555 192.22248,244.36562 C 191.36107,244.77283 189.95541,244.57372 189.0988,243.92316 C 187.85841,242.98112 187.80527,242.42485 188.83777,241.19083 C 190.73052,238.92867 190.42724,237.64468 188.00016,237.64468 C 186.54696,237.64468 185.964,238.34141 186.17293,239.82855 C 186.39343,241.3981 185.67202,242.12349 183.60836,242.40728 C 181.5574,242.68933 180.73699,242.24364 180.73699,240.84738 C 180.73699,239.77225 181.41405,238.89261 182.24157,238.89261 C 183.06909,238.89261 184.02495,238.35347 184.36569,237.69451 C 185.00194,236.46414 177.27966,231.40507 174.76535,231.40507 C 173.99378,231.40507 173.09204,230.56273 172.76149,229.53319 C 172.43093,228.50366 171.02134,227.66131 169.62908,227.66131 C 168.17114,227.66131 166.81179,226.73523 166.42351,225.47744 C 165.45664,222.34545 163.89138,221.42307 161.80641,222.7567 C 159.31667,224.34922 159.1312,224.2718 158.4975,221.37555 C 158.05923,219.37253 157.19574,218.89357 154.42498,219.11659 C 152.10864,219.30304 149.80014,218.42011 147.6604,216.52938 C 144.87167,214.06517 134.34557,208.14947 131.14053,207.24517 C 130.56625,207.08314 129.10099,206.29537 127.88437,205.49458 C 126.66776,204.69379 125.39094,204.37493 125.047,204.78601 C 124.44494,205.50556 112.3975,200.72587 110.25781,198.91856 C 109.68354,198.43349 107.33423,197.63236 105.03713,197.13826 C 102.74003,196.64417 100.25742,195.64413 99.520218,194.91596 C 98.783026,194.18777 96.668651,193.44304 94.821606,193.26098 C 89.772125,192.76327 82.174903,190.83691 80.561532,189.64518 C 79.775995,189.06494 78.148662,188.40433 76.945235,188.17714 C 75.741809,187.94996 72.642811,187.10771 70.058575,186.30548 C 67.474338,185.50324 61.836004,184.79313 57.528943,184.72744 C 53.221883,184.66174 49.228063,184.26058 48.653788,183.83596 C 46.417945,182.18276 39.927107,181.4394 39.24503,182.75841 C 38.756558,183.70304 38.092986,183.65332 37.022932,182.59193 C 35.809798,181.38862 35.161885,181.47948 33.859934,183.03554 C 32.147862,185.08176 32.869294,188.35118 34.729662,186.977 C 35.319014,186.54168 36.813596,186.77645 38.050956,187.49871 C 41.326911,189.41092 52.244452,193.62833 56.484807,194.61963 C 58.494769,195.08951 63.898173,196.85354 68.492371,198.5397 C 84.336846,204.35492 89.394232,206.16981 95.117838,208.09453 C 98.276349,209.15666 105.5592,211.71626 111.30195,213.78253 C 117.04469,215.8488 124.18089,218.41291 127.16018,219.48054 C 130.13945,220.54818 133.51821,221.4217 134.66854,221.4217 C 135.81886,221.4217 137.05042,221.98326 137.40534,222.66962 C 137.76027,223.35598 139.33854,223.91754 140.91262,223.91754 C 142.4867,223.91754 144.22094,224.38146 144.7665,224.94848 C 145.31206,225.51549 147.87281,226.68102 150.45704,227.53853 C 153.04128,228.39605 156.48667,229.89816 158.11345,230.87657 C 159.74024,231.85496 163.6298,233.01487 166.75694,233.45414 C 169.88406,233.89339 172.69207,234.73519 172.99694,235.32479 C 173.30183,235.91437 174.69821,236.39676 176.1,236.39676 C 177.50179,236.39676 178.64871,236.93898 178.64871,237.60169 C 178.64871,239.50338 166.09804,237.44132 163.50874,235.11421 C 162.93447,234.59808 161.20592,234.18415 159.66752,234.19435 C 158.12913,234.20455 152.49079,232.69097 147.13789,230.83083 C 128.17354,224.2407 119.62959,221.18311 117.56676,220.24831 C 112.9127,218.13928 100.57094,213.79923 96.161974,212.7212 C 88.870371,210.93833 59.455198,200.65765 56.484807,198.85393 C 54.060911,197.38205 42.521373,193.96741 39.971167,193.96741 C 37.24612,193.96741 37.214115,194.23857 39.355124,199.1869 C 40.967537,202.91352 40.932776,203.13722 38.249771,206.30048 L 35.479652,209.56644 L 33.713632,207.00991 C 32.742321,205.60381 31.125355,204.07714 30.120375,203.61729 C 27.881086,202.59265 27.734348,198.57105 29.859341,196.46326 C 30.720753,195.60882 31.425545,193.92349 31.425545,192.71809 C 31.425545,190.36298 28.659035,188.76778 20.807341,186.59554 C 18.125841,185.85367 14.670831,184.67366 13.129542,183.9733 L 10.327198,182.69991 L 14.120194,177.41434 C 16.206342,174.50728 19.96076,169.60173 22.463345,166.51313 C 24.96593,163.42452 31.359178,155.00105 36.670564,147.7943 C 48.413407,131.86103 61.789543,114.25534 71.724185,101.65669 C 75.798781,96.489483 85.414801,83.276724 93.093118,72.29501 C 100.77144,61.313296 111.77263,46.151043 117.54023,38.601114 C 123.30782,31.051186 130.36737,21.566789 133.22811,17.52468 C 139.8405,8.1816532 145.50279,3.6979878 148.37185,5.533147 C 149.59943,6.3183533 150.32478,7.9249769 150.17882,9.5355151 C 149.99232,11.593404 150.67157,12.443428 153.06738,13.150276 C 154.79021,13.65857 158.26029,14.983456 160.77868,16.094469 C 163.29707,17.20548 168.70047,18.623676 172.78625,19.246016 C 176.87201,19.868355 183.26902,21.264143 187.0018,22.347766 C 190.73459,23.431391 199.89688,25.690003 207.36245,27.366903 C 214.82803,29.043804 223.52046,31.295796 226.67897,32.37133 C 229.83748,33.446863 238.29498,35.760494 245.47342,37.512731 C 256.42621,40.186283 260.28819,40.587501 269.48854,40.007657 C 276.82782,39.545105 281.62693,39.817205 284.00631,40.830788 C 290.50208,43.597874 290.39841,44.845158 282.19352,62.640971 C 274.52134,79.281349 273.03653,85.398191 276.66941,85.398191 C 280.70723,85.398191 293.66066,89.507861 295.11988,91.251869 C 295.95379,92.248547 296.63608,94.441384 296.63608,96.124865 C 296.63608,99.646252 284.71704,127.63149 278.8818,137.81092 C 276.71784,141.58588 274.11375,147.48232 273.09493,150.9141 C 269.91903,161.61175 269.22186,161.81425 263.23007,153.77954 C 258.77612,147.807 251.06304,141.55469 248.14906,141.55469 C 247.68619,141.55469 250.57125,145.16621 254.56031,149.58028 C 261.04748,156.75863 263.61008,161.19456 267.72647,172.3712 C 270.28814,179.32653 264.91889,193.16814 259.04718,194.7459 C 257.6115,195.13167 255.63559,195.70577 254.65629,196.02167 C 253.67698,196.33757 250.43831,201.76064 247.45925,208.07293 C 244.48018,214.38521 239.12521,225.72703 235.5593,233.27696 C 231.99339,240.82689 225.40973,254.86601 220.92892,264.47501 C 208.08865,292.01075 208.87734,290.82638 202.73247,291.80062 C 199.80936,292.26407 196.83612,292.85213 196.12527,293.10742 C 195.41443,293.36272 192.24859,292.74147 189.09007,291.72684 z M 196.39903,289.56697 C 196.39903,288.61086 195.69423,287.50536 194.83282,287.11028 C 193.08188,286.30726 192.9955,286.51303 193.9004,289.33138 C 194.68319,291.76944 196.39903,291.9312 196.39903,289.56697 z M 223.16515,209.87698 C 226.78949,202.78247 227.34212,199.01358 224.90049,198.042 C 223.72738,197.57519 217.47604,210.84672 215.76118,217.44465 C 215.06273,220.13198 215.16578,220.21809 217.25482,218.69257 C 218.48894,217.79134 221.14859,213.82432 223.16515,209.87698 z M 239.56555,135.70241 C 238.90047,135.41702 236.17829,133.45929 233.51627,131.35191 C 229.08306,127.84236 225.78843,127.26236 228.46631,130.46289 C 230.09643,132.41116 239.63608,137.57373 240.25274,136.84135 C 240.53987,136.50033 240.23064,135.98781 239.56555,135.70241 z M 223.28117,132.63725 C 223.97243,131.81107 224.21113,129.61505 223.84651,127.43611 C 223.28569,124.0848 223.43732,123.7764 225.20823,124.66638 C 226.30427,125.2172 229.08048,126.47806 231.37758,127.46829 C 233.67468,128.45852 236.29591,130.06756 237.20254,131.04396 C 239.71525,133.75002 241.70961,133.18575 243.67301,129.21327 C 244.65325,127.22999 248.27851,121.88392 251.72916,117.33314 C 255.1798,112.78234 258.00305,108.31484 258.00305,107.40537 C 258.00305,104.78606 254.92843,102.21292 246.66924,97.920101 C 241.7832,95.380532 238.10424,94.194357 236.55502,94.659071 C 235.21583,95.06079 231.15375,94.553634 227.52818,93.532073 C 215.29475,90.085125 214.4731,90.390479 207.36245,101.02635 C 203.91681,106.18023 201.09764,111.04312 201.09764,111.83275 C 201.09764,112.62238 203.09455,114.06399 205.53522,115.03634 C 209.07315,116.44582 209.97279,117.39727 209.97279,119.72946 C 209.97279,122.74545 214.32039,127.82754 216.90049,127.82754 C 217.68446,127.82754 218.32588,128.85708 218.32588,130.1154 C 218.32588,134.07863 220.95545,135.41688 223.28117,132.63725 z M 149.41291,277.57819 C 148.47184,276.85133 148.34306,276.36086 149.09025,276.34937 C 149.7742,276.33887 150.62419,276.89183 150.97911,277.57819 C 151.78028,279.12752 151.41882,279.12752 149.41291,277.57819 z M 98.250246,251.37183 C 98.250246,250.68547 98.692374,250.12391 99.232757,250.12391 C 99.773139,250.12391 100.50566,250.68547 100.86059,251.37183 C 101.21551,252.05818 100.77338,252.61975 99.878074,252.61975 C 98.98277,252.61975 98.250246,252.05818 98.250246,251.37183 z M 95.400621,244.37826 C 95.747577,243.96359 96.648144,243.91926 97.401885,244.27975 C 98.234824,244.67811 97.987416,244.97382 96.771049,245.03369 C 95.670363,245.08788 95.053665,244.79294 95.400621,244.37826 z M 69.129413,242.17799 C 68.228574,240.8807 68.320316,240.09895 69.512135,238.91678 C 70.374306,238.06159 70.822231,236.86395 70.507525,236.25536 C 70.192818,235.64677 70.550388,235.18831 71.302123,235.23656 C 73.161582,235.35588 77.132262,237.44715 75.707888,237.55697 C 75.082224,237.60521 74.03511,239.0486 73.380967,240.76449 C 72.040521,244.28064 70.86165,244.67257 69.129413,242.17799 z M 78.93373,239.35545 C 76.957336,237.50649 77.041244,237.44943 80.499934,238.29043 C 85.951261,239.61596 88.004516,241.31295 84.15441,241.31082 C 82.431586,241.30986 80.08228,240.42995 78.93373,239.35545 z M 29.859341,235.14394 C 27.867497,234.12563 27.87955,234.0723 30.120375,233.98863 C 31.412493,233.94039 32.704611,233.90092 32.991748,233.90092 C 33.825372,233.90092 33.594543,235.75019 32.730715,235.99217 C 32.300008,236.11282 31.00789,235.73112 29.859341,235.14394 z M 4.4815626,197.08722 C 4.4602831,195.02815 4.6768839,194.03473 4.9628968,194.87961 C 5.2489096,195.72449 5.2663196,197.40918 5.0015862,198.62337 C 4.7368518,199.83756 4.5028411,199.14629 4.4815626,197.08722 z "
     style="fill:#151616;stroke:none;stroke-opacity:1"
     inkscape:export-filename="/home/todsah/dev/miniorganizer/data/path3225.png"
     inkscape:export-xdpi="19.280001"
     inkscape:export-ydpi="19.280001" />
  <path
     style="fill:none;fill-rule:evenodd;stroke:#352f2f;stroke-width:1.14149034px;stroke-linecap:butt;stroke-linejoin:miter;stroke-opacity:1"
     d="M 252.34345,193.87635 C 262.90661,190.35031 268.34838,178.50693 263.19014,168.32231 C 260.56983,161.02825 250.7614,150.86571 245.95844,144.71012 C 240.64286,139.8073 230.38,135.86153 224.31648,132.4109"
     id="path3225"
     sodipodi:nodetypes="cccc"
     inkscape:export-xdpi="19.280001"
     inkscape:export-ydpi="19.280001" />
</svg>
